<svg xmlns="http://www.w3.org/2000/svg" viewBox="0 0 200 220">
  <defs>
    <linearGradient id="leaf" x1="0" x2="1" y1="0" y2="1">
      <stop offset="0" stop-color="#71d55f"/>
      <stop offset="1" stop-color="#2f8f3e"/>
    </linearGradient>
    <linearGradient id="pot" x1="0" x2="1" y1="0" y2="1">
      <stop offset="0" stop-color="#ffba7d"/>
      <stop offset="1" stop-color="#dd7446"/>
    </linearGradient>
    <filter id="shadow">
      <feDropShadow dx="0" dy="10" stdDeviation="8" flood-color="#36502f" flood-opacity=".25"/>
    </filter>
  </defs>
  <path d="M68 8 C58 25 57 34 68 42 C79 34 78 25 68 8Z" fill="#4db8ff" opacity=".8"/><path d="M142 10 C132 27 131 36 142 44 C153 36 152 27 142 10Z" fill="#4db8ff" opacity=".8"/>
  <g filter="url(#shadow)" transform="">
    <path d="M100 100 C62 74 45 48 61 30 C86 18 103 54 101 100Z" fill="url(#leaf)"/>
    <path d="M101 100 C138 72 156 47 139 30 C114 18 98 54 101 100Z" fill="url(#leaf)"/>
    <path d="M78 105 C45 94 28 76 38 58 C62 44 83 74 92 105Z" fill="url(#leaf)" opacity=".95"/>
    <path d="M122 105 C155 94 172 76 162 58 C138 44 117 74 108 105Z" fill="url(#leaf)" opacity=".95"/>
    <path d="M100 107 C76 80 82 50 100 39 C118 50 124 80 100 107Z" fill="#66ca5c"/>
  </g>
  <g filter="url(#shadow)">
    <ellipse cx="100" cy="117" rx="59" ry="22" fill="#ffc18a"/>
    <rect x="53" y="107" width="94" height="86" rx="25" fill="url(#pot)"/>
    <ellipse cx="100" cy="108" rx="61" ry="22" fill="#ffbf87"/>
    <circle cx="82" cy="132" r="8" fill="#1d2a1e"/><circle cx="122" cy="132" r="8" fill="#1d2a1e"/><circle cx="79" cy="129" r="3" fill="#fff"/><circle cx="119" cy="129" r="3" fill="#fff"/>
    <path d="M85 146 Q102 166 119 146" stroke="#1d2a1e" stroke-width="6" fill="none" stroke-linecap="round"/>
    <circle cx="66" cy="149" r="8" fill="#ff8b7a" opacity=".78"/>
    <circle cx="136" cy="149" r="8" fill="#ff8b7a" opacity=".78"/>
  </g>
</svg>